:FULLY-SPECIFIED
:FORCE-ALL-JOINTS-BE-3DOF
:DEGREES
577
root 7.00769 16.3217 -3.55173 -166.781 75.8936 -173.541
lfemur -17.6359 -1.05048 -19.0107
ltibia 46.1219 -0 0
lfoot -32.8591 9.00408 0.0123428
ltoes 4.74091 -0 0
rfemur -50.8635 -12.2527 13.2504
rtibia 47.7665 -0 0
rfoot 11.9482 7.09907 0.0306376
rtoes -29.6344 0 0
lowerback 6.59983 -0.752192 -2.34586
upperback 2.43936 -0.987286 3.41614
thorax -1.07638 -0.473145 4.93051
lowerneck -5.23874 -13.5259 -4.042
upperneck 10.5156 -18.3517 5.33214
head 4.88367 -8.8612 1.08533
lclavicle -2.5345e-015 -9.54166e-015 0
lhumerus -39.144 -17.9761 92.9321
lradius 54.7299 -0 0
lwrist 22.3591 0 0
lhand -20.9502 -4.03642 0.00650366
lfingers 7.12502 -0 0
lthumb 5.42239 25.8736 0.00622117
rclavicle -2.5345e-015 -9.54166e-015 0
rhumerus 27.6675 16.0309 -73.8998
rradius 134.036 -0 0
rwrist -44.9458 0 0
rhand -25.8505 -20.9459 0.00422678
rfingers 7.12502 -0 0
rthumb 0.690152 -50.9241 0.00409313
578
root 6.95018 16.3356 -3.54333 -166.058 76.7388 -172.753
lfemur -17.5034 -0.973037 -19.0582
ltibia 45.7587 -0 0
lfoot -32.7414 9.43333 0.0132246
ltoes 5.1961 -0 0
rfemur -50.9851 -12.5547 13.4549
rtibia 49.5256 -0 0
rfoot 12.3984 7.37765 0.0328265
rtoes -28.3246 0 0
lowerback 6.42731 -0.754143 -2.47369
upperback 2.39326 -1.00368 3.31442
thorax -1.02592 -0.484526 4.89495
lowerneck -5.30296 -13.4934 -3.99595
upperneck 10.698 -18.3224 5.33745
head 4.94582 -8.83791 1.07163
lclavicle -2.5345e-015 -9.54166e-015 0
lhumerus -38.136 -18.6954 92.1864
lradius 54.5492 -0 0
lwrist 22.7007 0 0
lhand -20.8516 -3.76644 0.00696824
lfingers 7.12502 -0 0
lthumb 5.51758 26.1411 0.00666557
rclavicle -2.5345e-015 -9.54166e-015 0
rhumerus 27.5933 16.0053 -73.8302
rradius 134.045 -0 0
rwrist -44.962 0 0
rhand -25.7465 -20.7796 0.0045287
rfingers 7.12502 -0 0
rthumb 0.790625 -50.7574 0.0043855
579
root 6.89266 16.3494 -3.53492 -165.233 77.5815 -171.863
lfemur -17.3711 -0.895483 -19.1055
ltibia 45.3954 -0 0
lfoot -32.6237 9.86258 0.0132246
ltoes 5.65128 -0 0
rfemur -51.108 -12.8564 13.6604
rtibia 51.2846 -0 0
rfoot 12.8486 7.65623 0.0328265
rtoes -27.0148 0 0
lowerback 6.25478 -0.756479 -2.6015
upperback 2.34719 -1.02015 3.21271
thorax -0.975442 -0.495876 4.85939
lowerneck -5.36715 -13.4608 -3.94995
upperneck 10.8804 -18.2931 5.34285
head 5.00796 -8.8146 1.05795
lclavicle -2.5345e-015 -9.54166e-015 0
lhumerus -37.1137 -19.4021 91.4242
lradius 54.3686 -0 0
lwrist 23.0422 0 0
lhand -20.753 -3.49645 0.00696824
lfingers 7.12502 -0 0
lthumb 5.61278 26.4085 0.00666557
rclavicle -2.5345e-015 -9.54166e-015 0
rhumerus 27.5191 15.9799 -73.7605
rradius 134.053 -0 0
rwrist -44.9781 0 0
rhand -25.6424 -20.6133 0.0045287
rfingers 7.12502 -0 0
rthumb 0.891098 -50.5906 0.0043855
580
root 6.83515 16.3633 -3.52652 -164.283 78.421 -170.849
lfemur -17.2388 -0.817819 -19.1526
ltibia 45.0322 -0 0
lfoot -32.506 10.2918 0.0123428
ltoes 6.10647 -0 0
rfemur -51.2322 -13.1576 13.8667
rtibia 53.0437 -0 0
rfoot 13.2988 7.93481 0.0306376
rtoes -25.705 0 0
lowerback 6.08226 -0.7592 -2.72931
upperback 2.30115 -1.0367 3.11102
thorax -0.924961 -0.507194 4.82381
lowerneck -5.4313 -13.4282 -3.904
upperneck 11.0627 -18.2638 5.34834
head 5.07009 -8.79128 1.0443
lclavicle -2.5345e-015 -9.54166e-015 0
lhumerus -36.077 -20.0957 90.6453
lradius 54.1879 -0 0
lwrist 23.3838 0 0
lhand -20.6544 -3.22647 0.00650366
lfingers 7.12502 -0 0
lthumb 5.70797 26.676 0.00622117
rclavicle -2.5345e-015 -9.54166e-015 0
rhumerus 27.4448 15.9545 -73.6908
rradius 134.062 -0 0
rwrist -44.9943 0 0
rhand -25.5384 -20.447 0.00422678
rfingers 7.12502 -0 0
rthumb 0.991571 -50.4239 0.00409313
581
root 6.77763 16.3772 -3.51811 -163.181 79.2565 -169.682
lfemur -17.1065 -0.740046 -19.1996
ltibia 44.669 -0 0
lfoot -32.3883 10.7211 0.0105793
ltoes 6.56165 -0 0
rfemur -51.3577 -13.4584 14.074
rtibia 54.8028 -0 0
rfoot 13.7489 8.21337 0.0262601
rtoes -24.3952 0 0
lowerback 5.90975 -0.762306 -2.85711
upperback 2.25514 -1.05334 3.00934
thorax -0.874473 -0.518482 4.78823
lowerneck -5.49542 -13.3955 -3.85808
upperneck 11.245 -18.2345 5.35394
head 5.13221 -8.76794 1.03068
lclavicle -2.5345e-015 -9.54166e-015 0
lhumerus -35.0257 -20.7758 89.8497
lradius 54.0073 -0 0
lwrist 23.7254 0 0
lhand -20.5558 -2.95649 0.00557452
lfingers 7.12502 -0 0
lthumb 5.80316 26.9435 0.00533239
rclavicle -2.5345e-015 -9.54166e-015 0
rhumerus 27.3705 15.9292 -73.6211
rradius 134.071 -0 0
rwrist -45.0105 0 0
rhand -25.4344 -20.2807 0.00362294
rfingers 7.12502 -0 0
rthumb 1.09204 -50.2572 0.00350838
582
root 6.72011 16.3911 -3.5097 -161.889 80.0872 -168.325
lfemur -16.9743 -0.662166 -19.2463
ltibia 44.3058 -0 0
lfoot -32.2707 11.1503 0.00793426
ltoes 7.01684 -0 0
rfemur -51.4844 -13.7587 14.2822
rtibia 56.5619 -0 0
rfoot 14.1991 8.49188 0.0196942
rtoes -23.0855 0 0
lowerback 5.73725 -0.765797 -2.9849
upperback 2.20916 -1.07006 2.90767
thorax -0.823977 -0.529737 4.75263
lowerneck -5.5595 -13.3628 -3.81222
upperneck 11.4273 -18.2053 5.35963
head 5.19432 -8.74459 1.01708
lclavicle -2.5345e-015 -9.54166e-015 0
lhumerus -33.9596 -21.442 89.0371
lradius 53.8266 -0 0
lwrist 24.067 0 0
lhand -20.4572 -2.68651 0.00418084
lfingers 7.12502 -0 0
lthumb 5.89834 27.211 0.00399924
rclavicle -2.5345e-015 -9.54166e-015 0
rhumerus 27.2962 15.904 -73.5514
rradius 134.08 -0 0
rwrist -45.0267 0 0
rhand -25.3303 -20.1145 0.00271719
rfingers 7.12502 -0 0
rthumb 1.19251 -50.0904 0.00263127
583
root 6.6626 16.4049 -3.5013 -160.357 80.9117 -166.727
lfemur -16.8422 -0.584177 -19.2929
ltibia 43.9426 -0 0
lfoot -32.153 11.5796 0.00440774
ltoes 7.47202 -0 0
rfemur -51.6124 -14.0586 14.4914
rtibia 58.321 -0 0
rfoot 14.6492 8.77033 0.0109406
rtoes -21.7757 0 0
lowerback 5.56475 -0.769672 -3.11268
upperback 2.16321 -1.08686 2.80601
thorax -0.773475 -0.540962 4.71703
lowerneck -5.62355 -13.33 -3.76639
upperneck 11.6095 -18.176 5.36542
head 5.25643 -8.72122 1.00351
lclavicle -2.5345e-015 -9.54166e-015 0
lhumerus -32.8785 -22.0939 88.2076
lradius 53.646 -0 0
lwrist 24.4085 0 0
lhand -20.3587 -2.41653 0.00232265
lfingers 7.12502 -0 0
lthumb 5.99352 27.4784 0.00222176
rclavicle -2.5345e-015 -9.54166e-015 0
rhumerus 27.2219 15.8788 -73.4817
rradius 134.088 -0 0
rwrist -45.0429 0 0
rhand -25.2263 -19.9482 0.00150954
rfingers 7.12502 -0 0
rthumb 1.29298 -49.9237 0.00146181
